<svg width="158" height="32" viewBox="0 0 158 32" fill="none" xmlns="http://www.w3.org/2000/svg">
<path d="M0.528409 31V1.90909H6.67898V14.7358H7.0625L17.5312 1.90909H24.9034L14.108 14.9347L25.0312 31H17.6733L9.70455 19.0398L6.67898 22.733V31H0.528409ZM36.3345 31.4261C34.0902 31.4261 32.1584 30.9716 30.5391 30.0625C28.9292 29.1439 27.6887 27.8466 26.8175 26.1705C25.9463 24.4848 25.5107 22.4915 25.5107 20.1903C25.5107 17.946 25.9463 15.9763 26.8175 14.2812C27.6887 12.5862 28.915 11.2652 30.4964 10.3182C32.0874 9.37121 33.9529 8.89773 36.093 8.89773C37.5324 8.89773 38.8724 9.12973 40.1129 9.59375C41.3629 10.0483 42.4519 10.7348 43.38 11.6534C44.3175 12.572 45.0466 13.7273 45.5675 15.1193C46.0883 16.5019 46.3487 18.1212 46.3487 19.9773V21.6392H27.9254V17.8892H40.6527C40.6527 17.018 40.4633 16.2462 40.0845 15.5739C39.7057 14.9015 39.1802 14.3759 38.5078 13.9972C37.8449 13.6089 37.0732 13.4148 36.1925 13.4148C35.2739 13.4148 34.4595 13.6278 33.7493 14.054C33.0485 14.4706 32.4993 15.0341 32.1016 15.7443C31.7038 16.4451 31.5002 17.2263 31.4908 18.0881V21.6534C31.4908 22.733 31.6896 23.6657 32.0874 24.4517C32.4946 25.2377 33.0675 25.8438 33.8061 26.2699C34.5447 26.696 35.4207 26.9091 36.4339 26.9091C37.1063 26.9091 37.7218 26.8144 38.2805 26.625C38.8393 26.4356 39.3175 26.1515 39.7152 25.7727C40.1129 25.3939 40.416 24.9299 40.6243 24.3807L46.2209 24.75C45.9368 26.0947 45.3544 27.2689 44.4737 28.2727C43.6025 29.267 42.4756 30.0436 41.093 30.6023C39.7199 31.1515 38.1338 31.4261 36.3345 31.4261ZM76.0788 12.0938H69.8572C69.7436 11.2888 69.5116 10.5739 69.1612 9.94886C68.8108 9.31439 68.361 8.77462 67.8118 8.32955C67.2625 7.88447 66.6281 7.54356 65.9084 7.30682C65.1982 7.07008 64.4264 6.9517 63.593 6.9517C62.0874 6.9517 60.7758 7.32576 59.6584 8.07386C58.541 8.8125 57.6745 9.89205 57.0589 11.3125C56.4434 12.7235 56.1357 14.4375 56.1357 16.4545C56.1357 18.5284 56.4434 20.2708 57.0589 21.6818C57.6839 23.0928 58.5552 24.1581 59.6726 24.8778C60.79 25.5975 62.0826 25.9574 63.5504 25.9574C64.3743 25.9574 65.1366 25.8485 65.8374 25.6307C66.5476 25.4129 67.1773 25.0956 67.7266 24.679C68.2758 24.2528 68.7304 23.7367 69.0902 23.1307C69.4595 22.5246 69.7152 21.8333 69.8572 21.0568L76.0788 21.0852C75.9179 22.4205 75.5154 23.7083 74.8714 24.9489C74.237 26.1799 73.38 27.2831 72.3004 28.2585C71.2304 29.2244 69.9519 29.9915 68.4652 30.5597C66.9879 31.1184 65.3165 31.3977 63.451 31.3977C60.8563 31.3977 58.5362 30.8106 56.4908 29.6364C54.4548 28.4621 52.8449 26.7623 51.6612 24.5369C50.487 22.3116 49.8999 19.6174 49.8999 16.4545C49.8999 13.2822 50.4964 10.5833 51.6896 8.35795C52.8828 6.13258 54.5021 4.4375 56.5476 3.27273C58.593 2.09848 60.8942 1.51136 63.451 1.51136C65.1366 1.51136 66.6991 1.74811 68.1385 2.22159C69.5874 2.69508 70.8705 3.38636 71.9879 4.29545C73.1054 5.19507 74.0144 6.29829 74.7152 7.60511C75.4254 8.91193 75.88 10.4081 76.0788 12.0938ZM86.4268 1.90909V31H80.3757V1.90909H86.4268ZM91.2741 31V9.18182H97.3253V31H91.2741ZM94.3139 6.36932C93.4143 6.36932 92.6425 6.07102 91.9986 5.47443C91.3641 4.86837 91.0469 4.14394 91.0469 3.30114C91.0469 2.4678 91.3641 1.75284 91.9986 1.15625C92.6425 0.550188 93.4143 0.247158 94.3139 0.247158C95.2135 0.247158 95.9806 0.550188 96.6151 1.15625C97.259 1.75284 97.581 2.4678 97.581 3.30114C97.581 4.14394 97.259 4.86837 96.6151 5.47443C95.9806 6.07102 95.2135 6.36932 94.3139 6.36932ZM108.224 18.3864V31H102.173V9.18182H107.94V13.0312H108.195C108.678 11.7623 109.488 10.7585 110.624 10.0199C111.761 9.27178 113.138 8.89773 114.758 8.89773C116.273 8.89773 117.594 9.22917 118.721 9.89205C119.848 10.5549 120.724 11.5019 121.349 12.733C121.974 13.9545 122.286 15.4129 122.286 17.108V31H116.235V18.1875C116.245 16.8523 115.904 15.8106 115.212 15.0625C114.521 14.3049 113.569 13.9261 112.357 13.9261C111.543 13.9261 110.823 14.1013 110.198 14.4517C109.583 14.8021 109.1 15.3134 108.749 15.9858C108.408 16.6487 108.233 17.4489 108.224 18.3864ZM127.055 31V9.18182H133.107V31H127.055ZM130.095 6.36932C129.196 6.36932 128.424 6.07102 127.78 5.47443C127.145 4.86837 126.828 4.14394 126.828 3.30114C126.828 2.4678 127.145 1.75284 127.78 1.15625C128.424 0.550188 129.196 0.247158 130.095 0.247158C130.995 0.247158 131.762 0.550188 132.396 1.15625C133.04 1.75284 133.362 2.4678 133.362 3.30114C133.362 4.14394 133.04 4.86837 132.396 5.47443C131.762 6.07102 130.995 6.36932 130.095 6.36932ZM147.812 31.4261C145.577 31.4261 143.655 30.9527 142.045 30.0057C140.444 29.0492 139.213 27.7235 138.352 26.0284C137.499 24.3333 137.073 22.3826 137.073 20.1761C137.073 17.9413 137.504 15.9811 138.366 14.2955C139.237 12.6004 140.473 11.2794 142.073 10.3324C143.674 9.37595 145.577 8.89773 147.783 8.89773C149.687 8.89773 151.353 9.24337 152.783 9.93466C154.213 10.6259 155.345 11.5966 156.178 12.8466C157.012 14.0966 157.471 15.5644 157.556 17.25H151.846C151.685 16.161 151.259 15.285 150.567 14.6222C149.886 13.9498 148.991 13.6136 147.883 13.6136C146.945 13.6136 146.126 13.8693 145.425 14.3807C144.734 14.8826 144.194 15.6165 143.806 16.5824C143.418 17.5483 143.224 18.7178 143.224 20.0909C143.224 21.483 143.413 22.6667 143.792 23.642C144.18 24.6174 144.725 25.3608 145.425 25.8722C146.126 26.3835 146.945 26.6392 147.883 26.6392C148.574 26.6392 149.194 26.4972 149.744 26.2131C150.302 25.929 150.762 25.517 151.121 24.9773C151.491 24.428 151.732 23.7699 151.846 23.0028H157.556C157.461 24.6695 157.007 26.1373 156.192 27.4062C155.388 28.6657 154.275 29.6506 152.854 30.3608C151.434 31.071 149.753 31.4261 147.812 31.4261Z" fill="#0C4BBA"/>
</svg>
